<svg width="158" height="174" viewBox="0 0 158 174" fill="none" xmlns="http://www.w3.org/2000/svg">
<path d="M145.039 72.8671C141.922 72.8671 139.168 70.8796 138.187 67.9114C135.66 60.2863 130.003 53.0639 121.82 47.0171C109.869 38.1969 94.4693 33.3127 78.4657 33.2802C62.4621 33.3127 47.069 38.1904 35.1183 47.0171C26.9346 53.0574 21.2775 60.2798 18.7509 67.9114C17.7702 70.8731 15.0163 72.8671 11.8988 72.8671C11.1259 72.8671 10.3594 72.7437 9.62551 72.4969C9.60603 72.4969 9.59304 72.4839 9.57356 72.4774C5.83245 71.2044 3.79953 67.132 5.04656 63.3714C8.51487 52.895 15.9451 43.224 26.5449 35.3976C35.0014 29.1559 45.0816 24.4406 55.8113 21.6932C54.6422 19.6473 54.0316 17.3481 54.0316 14.9514C54.0316 7.41726 60.1629 1.2925 67.6906 1.2925C72.0617 1.2925 76.1015 3.3579 78.6541 6.80023C81.2131 3.3579 85.2465 1.2925 89.6176 1.2925C97.1517 1.2925 103.277 7.42375 103.277 14.9514C103.277 17.3805 102.653 19.7057 101.451 21.7711C112.058 24.525 122.028 29.2144 130.406 35.3976C141.006 43.224 148.436 52.895 151.904 63.3714C153.151 67.1515 151.099 71.2433 147.319 72.4969C146.591 72.7437 145.825 72.8671 145.052 72.8671H145.039Z" fill="white"/>
<path d="M89.6046 2.59799C96.4308 2.59799 101.965 8.13171 101.965 14.9579C101.965 17.8417 100.977 20.4916 99.3211 22.5895C110.421 25.22 120.787 29.9288 129.62 36.4498C139.999 44.1138 147.273 53.564 150.651 63.7871C151.677 66.8917 149.995 70.2431 146.89 71.2693C146.273 71.4772 145.643 71.5746 145.033 71.5746C142.545 71.5746 140.233 69.9963 139.415 67.5152C136.804 59.6303 130.984 52.1871 122.586 45.9844C110.408 36.9954 94.7486 32.0267 78.4592 31.9942C62.1763 32.0267 46.5105 36.9954 34.3324 45.9844C25.9344 52.1871 20.1149 59.6303 17.5039 67.5152C16.6791 70.0028 14.3668 71.5746 11.8858 71.5746C11.2687 71.5746 10.6387 71.4772 10.0282 71.2693C6.9236 70.2431 5.24141 66.8917 6.26761 63.7871C9.65149 53.5705 16.9194 44.1138 27.2983 36.4498C36.2094 29.8704 46.6858 25.142 57.8961 22.5246C56.2789 20.4332 55.3046 17.8092 55.3046 14.9579C55.3046 8.13171 60.8384 2.59799 67.6646 2.59799C72.4319 2.59799 76.5627 5.2934 78.6281 9.24234C80.6935 5.2934 84.8243 2.59799 89.5916 2.59799M89.6046 0C85.3764 0 81.4339 1.76663 78.6411 4.7738C75.8547 1.76663 71.9123 0 67.6776 0C59.4289 0 52.7196 6.70931 52.7196 14.9579C52.7196 17.0168 53.1288 19.0108 53.9277 20.8554C43.6202 23.6872 33.9427 28.3181 25.7655 34.3584C14.9514 42.3407 7.35877 52.2326 3.80602 62.9688C2.33815 67.3983 4.72831 72.1981 9.1319 73.7049C9.15788 73.7114 9.18386 73.7244 9.20334 73.7309C10.0672 74.0232 10.97 74.1661 11.8858 74.1661C15.5619 74.1661 18.8094 71.8214 19.972 68.3271C22.4141 60.9553 27.9089 53.9472 35.8782 48.0693C47.6081 39.4115 62.7349 34.6182 78.4657 34.5857C94.1835 34.6182 109.31 39.405 121.04 48.0693C129.003 53.9472 134.504 60.9553 136.946 68.3271C138.103 71.8214 141.35 74.1726 145.033 74.1726C145.948 74.1726 146.845 74.0232 147.715 73.7374C149.871 73.023 151.625 71.5096 152.645 69.4767C153.664 67.4438 153.833 65.1381 153.119 62.9752C149.573 52.2455 141.98 42.3537 131.159 34.3649C123.06 28.3895 113.5 23.7846 103.315 20.9463C104.134 19.0822 104.556 17.0558 104.556 14.9644C104.556 6.7158 97.8467 0.00649388 89.5981 0.00649388L89.6046 0Z" fill="#231815"/>
<path d="M78.6411 171.805C57.5455 171.805 38.2164 167.239 24.2068 158.945C13.7564 152.755 1.299 141.577 1.299 123.443C1.299 116.767 3.02666 110.038 6.43002 103.445C8.77471 98.9119 11.8468 94.5733 15.5749 90.5334C18.0495 87.851 19.5823 84.3697 19.8811 80.7325C20.7319 70.425 27.0191 59.8641 37.1253 51.7519C48.5889 42.5485 63.339 37.4825 78.6476 37.4825C93.9563 37.4825 108.7 42.5485 120.17 51.7519C130.276 59.8641 136.563 70.425 137.414 80.726C137.719 84.3632 139.246 87.8445 141.72 90.5269C145.442 94.5603 148.521 98.9054 150.859 103.439C150.872 103.465 150.885 103.484 150.891 103.51C154.275 110.083 155.983 116.786 155.983 123.437C155.983 141.564 143.526 152.749 133.075 158.938C119.066 167.233 99.7368 171.798 78.6411 171.798V171.805ZM78.6411 72.8671C58.9549 72.8671 42.9383 88.8837 42.9383 108.57C42.9383 128.256 58.9549 144.273 78.6411 144.273C98.3274 144.273 114.344 128.256 114.344 108.57C114.344 88.8837 98.3274 72.8671 78.6411 72.8671Z" fill="white"/>
<path d="M78.6411 38.788C93.6575 38.788 108.115 43.7566 119.352 52.7716C129.178 60.663 135.29 70.8926 136.115 80.8429C136.446 84.7854 138.077 88.507 140.759 91.4167C144.409 95.3722 147.416 99.6199 149.703 104.043C153.009 110.447 154.691 116.974 154.691 123.443C154.691 140.96 142.578 151.807 132.419 157.821C118.611 165.998 99.516 170.499 78.6476 170.499C57.7793 170.499 38.6905 165.998 24.8757 157.821C14.7176 151.807 2.60448 140.954 2.60448 123.443C2.60448 116.974 4.28018 110.447 7.58612 104.043C9.87235 99.6199 12.8795 95.3722 16.5297 91.4167C19.2121 88.507 20.8489 84.7854 21.1736 80.8429C21.9985 70.8926 28.1102 60.663 37.9371 52.7716C49.1734 43.7501 63.6312 38.788 78.6476 38.788M78.6411 145.578C99.0808 145.578 115.643 129.01 115.643 108.576C115.643 88.1432 99.0743 71.5746 78.6411 71.5746C58.2079 71.5746 41.6393 88.1432 41.6393 108.576C41.6393 129.01 58.2079 145.578 78.6411 145.578ZM78.6411 36.19C63.0402 36.19 48.0043 41.36 36.3069 50.7452C25.9214 59.0783 19.4654 69.9703 18.5821 80.6286C18.3028 83.98 16.8999 87.182 14.6137 89.6566C10.8076 93.7809 7.67056 98.2169 5.27392 102.854C1.77313 109.635 0 116.559 0 123.443C0 133.79 4.08534 148.533 23.5443 160.062C37.7488 168.473 57.3116 173.104 78.6411 173.104C99.9706 173.104 119.533 168.473 133.738 160.062C153.197 148.54 157.282 133.79 157.282 123.443C157.282 116.598 155.529 109.707 152.06 102.958C152.041 102.919 152.028 102.887 152.008 102.848C149.612 98.2104 146.468 93.7744 142.669 89.6566C140.389 87.1885 138.979 83.98 138.7 80.6286C137.817 69.9703 131.354 59.0783 120.975 50.7452C109.278 41.36 94.242 36.19 78.6411 36.19ZM78.6411 142.98C59.6693 142.98 44.2373 127.548 44.2373 108.576C44.2373 89.6046 59.6693 74.1726 78.6411 74.1726C97.6129 74.1726 113.045 89.6046 113.045 108.576C113.045 127.548 97.6129 142.98 78.6411 142.98Z" fill="#231815"/>
<path d="M78.6671 132.972C75.4326 132.972 73.2633 130.887 73.2633 127.782V121.177H64.3327C61.5009 121.177 59.5199 119.196 59.5199 116.364C59.5199 113.85 60.9488 112.11 63.2416 111.701C61.0333 111.239 59.5719 109.44 59.5719 107.005C59.5719 104.173 61.5529 102.192 64.3847 102.192H66.4501L60.1759 92.4624C59.6044 91.6441 59.3056 90.7023 59.3056 89.6891C59.3056 87.7861 60.4487 85.9934 62.2868 85.0127C63.2091 84.4996 64.1833 84.2333 65.1446 84.2333C66.9502 84.2333 68.548 85.1751 69.5352 86.8118L78.6606 101.9L87.6886 86.8313C88.6434 85.1556 90.2736 84.1813 92.1442 84.1813C93.2094 84.1813 94.32 84.5191 95.2618 85.1361C96.9764 86.1818 97.9832 87.8315 97.9832 89.6371C97.9832 90.6049 97.7104 91.5077 97.1518 92.404L90.8712 102.192H93.008C95.8853 102.192 97.8208 104.101 97.8208 106.946C97.8208 109.427 96.3334 111.259 94.0992 111.707C96.3659 112.136 97.7688 113.87 97.7688 116.357C97.7688 119.189 95.7879 121.17 92.9561 121.17H84.0774V127.776C84.0774 130.828 81.8562 132.965 78.6736 132.965L78.6671 132.972Z" fill="white"/>
<path d="M92.1377 85.4803C92.9561 85.4803 93.8134 85.7466 94.5473 86.2273C95.9048 87.0521 96.6777 88.2992 96.6777 89.6436C96.6777 90.3581 96.4698 91.04 96.0477 91.722L88.494 103.504H93.008C95.1708 103.504 96.5218 104.829 96.5218 106.959C96.5218 109.09 95.1449 110.525 93.008 110.525H84.0385L82.7784 112.571V112.915H92.9561C95.1579 112.915 96.4698 114.208 96.4698 116.37C96.4698 118.533 95.0604 119.884 92.9561 119.884H82.7784V127.789C82.7784 130.114 81.1287 131.679 78.6736 131.679C76.2185 131.679 74.5688 130.153 74.5688 127.789V119.884H64.3392C62.2089 119.884 60.8254 118.507 60.8254 116.37C60.8254 114.234 62.1374 112.915 64.3392 112.915H74.5688V112.538L73.2763 110.525H64.3977C62.2673 110.525 60.8839 109.148 60.8839 107.011C60.8839 104.874 62.2608 103.497 64.3977 103.497H68.8467L61.2801 91.7675C60.8384 91.1375 60.6176 90.436 60.6176 89.6956C60.6176 88.2732 61.4944 86.9157 62.9103 86.1623C63.6507 85.7466 64.4172 85.5323 65.1576 85.5323C66.515 85.5323 67.6776 86.2273 68.431 87.4808L78.6801 104.413L88.8188 87.4938C89.5527 86.2078 90.7672 85.4738 92.1572 85.4738M92.1377 82.8824C89.832 82.8824 87.7471 84.1164 86.5585 86.1883L78.6476 99.3861L70.6328 86.1428C69.4118 84.1099 67.4113 82.9408 65.1381 82.9408C63.956 82.9408 62.7804 83.2591 61.6503 83.8891C59.403 85.0971 58.0001 87.3249 58.0001 89.7021C58.0001 90.9491 58.3833 92.1637 59.1043 93.2158L64.0729 100.912C60.6955 101.062 58.2729 103.582 58.2729 107.018C58.2729 108.934 59.0263 110.564 60.2734 111.655C58.9744 112.72 58.2145 114.363 58.2145 116.377C58.2145 119.917 60.7865 122.489 64.3262 122.489H71.9578V127.795C71.9578 131.614 74.7182 134.284 78.6606 134.284C82.6031 134.284 85.3634 131.556 85.3634 127.795V122.489H92.9431C96.4828 122.489 99.0548 119.917 99.0548 116.377C99.0548 114.402 98.3274 112.779 97.0674 111.714C98.3469 110.622 99.1068 108.953 99.1068 106.959C99.1068 103.471 96.7037 101.016 93.2353 100.906L98.23 93.1249C98.9314 92.0078 99.2757 90.8452 99.2757 89.6436C99.2757 87.3834 98.0546 85.3374 95.9307 84.032C94.7876 83.2915 93.4367 82.8888 92.1377 82.8888V82.8824Z" fill="#231815"/>
</svg>
